# xmcd CD database file
#
# Track frame offsets:
#	150
#	16348
#	45810
#	68324
#	100967
#	116711
#	139376
#	155338
#	176433
#	190248
#	207943
#	227937
#	244847
#	260546
#	279169
#
# Disc length: 3955 seconds
#
# Revision: 1
# Processed by: cddbd v1.5.2PL0 Copyright (c) Steve Scherf et al.
# Submitted via: CDex 1.51
#
DISCID=c70f710f
DTITLE=Oscar Benton - The Best Of Oscar Benton blues band
DYEAR=1972
DGENRE=
TTITLE0=Bensonhurst blues
TTITLE1=Somebody's love will do
TTITLE2=Helpless
TTITLE3=I don't know
TTITLE4=Not the same dream anymore
TTITLE5=Took me a long time
TTITLE6=The day i got rid of the blues
TTITLE7=Lovin' C.M.B.H.
TTITLE8=The long and winding road
TTITLE9=Busted
TTITLE10=The three bells
TTITLE11=It Ain't Nobody's business
TTITLE12=I believe in love
TTITLE13=How can i just start again
TTITLE14=Bensonhurst blues (ver2)
EXTD=YEAR: 1972
EXTT0=
EXTT1=
EXTT2=
EXTT3=
EXTT4=
EXTT5=
EXTT6=
EXTT7=
EXTT8=
EXTT9=
EXTT10=
EXTT11=
EXTT12=
EXTT13=
EXTT14=
PLAYORDER=
